<?xml version="1.0" encoding="UTF-8" standalone="no"?>
<svg width="88px" height="60px" viewBox="0 0 88 60" version="1.1" xmlns="http://www.w3.org/2000/svg" xmlns:xlink="http://www.w3.org/1999/xlink">
    <!-- Generator: Sketch 39.1 (31720) - http://www.bohemiancoding.com/sketch -->
    <title>1px</title>
    <desc>Created with Sketch.</desc>
    <defs></defs>
    <g id="1px" stroke="none" stroke-width="1" fill="none" fill-rule="evenodd">
        <g fill="#212121">
            <path d="M84.25,45.75 L78,45.75 L78,39.5 L71.75,39.5 L71.75,33.25 L65.5,33.25 L65.5,39.5 L59.25,39.5 L59.25,45.75 L53,45.75 L53,39.5 L59.25,39.5 L59.25,33.25 L65.5,33.25 L65.5,27 L59.25,27 L59.25,20.75 L53,20.75 L53,14.5 L59.25,14.5 L59.25,20.75 L65.5,20.75 L65.5,27 L71.75,27 L71.75,20.75 L78,20.75 L78,14.5 L84.25,14.5 L84.25,20.75 L78,20.75 L78,27 L71.75,27 L71.75,33.25 L78,33.25 L78,39.5 L84.25,39.5 L84.25,45.75 Z M40.5,39.5 L40.5,20.75 L28,20.75 L28,39.5 L40.5,39.5 Z M46.75,39.5 L40.5,39.5 L40.5,45.75 L28,45.75 L28,58.25 L21.75,58.25 L21.75,14.5 L28,14.5 L40.5,14.5 L40.5,20.75 L46.75,20.75 L46.75,39.5 Z M15.5,45.75 L9.25,45.75 L9.25,14.5 L3,14.5 L3,8.25 L9.25,8.25 L9.25,2 L15.5,2 L15.5,45.75 Z"></path>
        </g>
    </g>
</svg>